# This file uses meters as units for non-parametric coordinates.

mtllib Big wall.mtl
g default
v 0.000000 300.000000 0.000000
v 0.000000 0.000000 0.000000
v 0.000000 300.000000 -400.000000
v 0.000000 0.000000 -400.000000
v 0.000000 146.664490 -400.000000
v 0.000000 146.664490 0.000000
vt 0.238762 0.000000
vt 0.604668 0.000000
vt 0.238762 2.000000
vt 0.604668 2.000000
vt 0.423758 2.000000
vt 0.423758 0.000000
vn 1.000000 0.000000 0.000000
vn 1.000000 0.000000 0.000000
vn 1.000000 0.000000 0.000000
vn 1.000000 0.000000 0.000000
vn 1.000000 0.000000 0.000000
vn 1.000000 0.000000 0.000000
s 1
g WallBig1
usemtl lambert2SG
f 4/4/1 5/5/2 6/6/3 2/2/4
f 6/6/3 5/5/2 3/3/5 1/1/6
