# This file uses meters as units for non-parametric coordinates.

mtllib Corner.mtl
g default
v 0.000000 300.000000 -200.000000
v 0.000000 0.000000 -200.000000
v 0.000000 146.664505 -200.000000
v -200.000000 300.000000 0.000000
v -200.000000 0.000000 0.000000
v -200.000000 146.664505 0.000000
v -4.999500 300.000000 0.000000
v 0.000000 300.000000 -4.999512
v 0.000000 146.664505 -4.999512
v -4.999500 146.664505 0.000000
v 0.000000 0.000000 -4.999512
v -4.999500 0.000000 0.000000
v -1.156654 300.000000 -1.218994
v -1.156654 146.664505 -1.218994
v -1.156654 0.000000 -1.218994
vt 0.238762 0.024998
vt 0.238762 0.000000
vt 0.426083 0.000000
vt 0.606993 0.000000
vt 0.604668 1.000000
vt 0.606935 0.024998
vt 0.426025 0.024998
vt 0.423758 1.000000
vt 0.238762 1.000000
vt 0.604668 1.000000
vt 0.604908 0.024999
vt 0.424739 0.024974
vt 0.423758 1.000000
vt 0.238763 0.024992
vt 0.238762 1.000000
vt 0.238762 0.012468
vt 0.426054 0.012468
vt 0.606964 0.012468
vn 0.956246 0.000000 0.292565
vn 0.707111 0.000000 0.707103
vn 0.707109 0.000000 0.707105
vn 0.956246 0.000000 0.292564
vn 0.707107 0.000000 0.707106
vn 0.956246 0.000000 0.292564
vn 1.000000 0.000000 0.000000
vn 1.000000 0.000000 0.000000
vn 1.000000 0.000000 0.000000
vn 1.000000 0.000000 0.000000
vn 1.000000 0.000000 0.000000
vn 1.000000 0.000000 0.000000
vn 0.000000 0.000000 1.000000
vn 0.000000 0.000000 1.000000
vn 0.000000 0.000000 1.000000
vn 0.000000 0.000000 1.000000
vn 0.000000 0.000000 1.000000
vn 0.000000 0.000000 1.000000
vn 0.302374 0.000000 0.953190
vn 0.302367 0.000000 0.953192
vn 0.302361 0.000000 0.953194
s 1
g WallSmall5
usemtl lambert2SG
f 8/1/1 13/16/2 14/17/3 9/7/4
f 9/7/4 14/17/3 15/18/5 11/6/6
s 2
f 2/5/7 3/8/8 9/7/9 11/6/10
f 9/7/9 3/8/8 1/9/11 8/1/12
s 3
f 5/10/13 12/11/14 10/12/15 6/13/16
f 10/12/15 7/14/17 4/15/18 6/13/16
s 1
f 14/17/3 13/16/2 7/2/19 10/3/20
f 15/18/5 14/17/3 10/3/20 12/4/21
